HIERARCHY
ROOT Hips
{
	OFFSET 55.310501 45.591206 43.872097
	CHANNELS 6 Xposition Yposition Zposition Zrotation Xrotation Yrotation
	JOINT Chest
	{
		OFFSET -0.153500 1.163101 7.852402
		CHANNELS 6 Xposition Yposition Zposition Zrotation Xrotation Yrotation
		JOINT Chest2
		{
			OFFSET 0.000000 0.000000 3.343300
			CHANNELS 6 Xposition Yposition Zposition Zrotation Xrotation Yrotation
			JOINT Neck
			{
				OFFSET 0.000000 0.000000 7.785500
				CHANNELS 6 Xposition Yposition Zposition Zrotation Xrotation Yrotation
				JOINT Head
				{
					OFFSET 0.000000 0.000000 2.173901
					CHANNELS 6 Xposition Yposition Zposition Zrotation Xrotation Yrotation
					End Site
					{
						OFFSET 0.000000 0.000000 10.528198
					}
				}
			}
			JOINT LeftCollar
			{
				OFFSET 2.676300 -1.652401 4.938301
				CHANNELS 6 Xposition Yposition Zposition Zrotation Xrotation Yrotation
				JOINT LeftShoulder
				{
					OFFSET 4.299000 0.000000 0.000000
					CHANNELS 6 Xposition Yposition Zposition Zrotation Xrotation Yrotation
					JOINT LeftElbow
					{
						OFFSET 0.000000 0.000000 -10.245102
						CHANNELS 6 Xposition Yposition Zposition Zrotation Xrotation Yrotation
						JOINT LeftWrist
						{
							OFFSET 0.000000 0.000000 -12.703300
							CHANNELS 6 Xposition Yposition Zposition Zrotation Xrotation Yrotation
							End Site
							{
								OFFSET 0.000000 0.000000 -2.173901
							}
						}
					}
				}
			}
			JOINT RightCollar
			{
				OFFSET -2.534599 -1.686401 5.195000
				CHANNELS 6 Xposition Yposition Zposition Zrotation Xrotation Yrotation
				JOINT RightShoulder
				{
					OFFSET -4.144100 0.000000 0.000000
					CHANNELS 6 Xposition Yposition Zposition Zrotation Xrotation Yrotation
					JOINT RightElbow
					{
						OFFSET 0.000000 0.000000 -10.116501
						CHANNELS 6 Xposition Yposition Zposition Zrotation Xrotation Yrotation
						JOINT RightWrist
						{
							OFFSET 0.000000 0.000000 -12.937801
							CHANNELS 6 Xposition Yposition Zposition Zrotation Xrotation Yrotation
							End Site
							{
								OFFSET 0.000000 0.000000 -2.173901
							}
						}
					}
				}
			}
		}
	}
	JOINT LeftHip
	{
		OFFSET 2.175598 0.064499 -2.662899
		CHANNELS 6 Xposition Yposition Zposition Zrotation Xrotation Yrotation
		JOINT LeftKnee
		{
			OFFSET 0.000000 -0.000004 -18.585800
			CHANNELS 6 Xposition Yposition Zposition Zrotation Xrotation Yrotation
			JOINT LeftAnkle
			{
				OFFSET 0.000000 0.000000 -18.979500
				CHANNELS 6 Xposition Yposition Zposition Zrotation Xrotation Yrotation
				End Site
				{
					OFFSET 0.000000 -9.264000 0.000000
				}
			}
		}
	}
	JOINT RightHip
	{
		OFFSET -2.092400 -0.058102 -2.581200
		CHANNELS 6 Xposition Yposition Zposition Zrotation Xrotation Yrotation
		JOINT RightKnee
		{
			OFFSET 0.000000 -0.000004 -18.665001
			CHANNELS 6 Xposition Yposition Zposition Zrotation Xrotation Yrotation
			JOINT RightAnkle
			{
				OFFSET 0.000000 0.000000 -18.566601
				CHANNELS 6 Xposition Yposition Zposition Zrotation Xrotation Yrotation
				End Site
				{
					OFFSET 0.000000 -8.497601 0.000000
				}
			}
		}
	}
}
MOTION
Frames: 9
Frame Time: 0.041667
67.355797 5.424099 43.702499 2484.069423 3.977394 -6.297308 -0.153503 1.163103 7.852405 -2.510245 7.583283 8.759377 0.000005 0.000002 3.343298 -1.507453 -4.230372 -0.003683 -0.000006 0.000012 7.785497 56.877837 -3.098409 -9.170010 -0.000006 -0.000002 2.173903 6.608369 -0.392132 7.169519 2.676296 -1.652394 4.938300 -0.216902 0.270371 9.785659 4.299009 -0.000000 -0.000002 -366.756078 -5.483846 264.541259 -0.000009 0.000008 -10.245102 35.620348 707.738847 361.077595 0.000011 -0.000009 -12.703303 859.827270 -341.227017 426.630363 -2.534606 -1.686394 5.195001 1.560194 2.744035 7.505956 -4.144099 0.000004 -0.000013 198.322698 196.374086 -63.804752 0.000006 -0.000002 -10.116499 -400.503442 -366.928991 -364.844609 -0.000002 0.000008 -12.937807 -1730.855832 -4.222706 40.743069 2.175600 0.064500 -2.662895 -1064.989651 -13.187292 6.150545 -0.000002 -0.000002 -18.585800 480.446872 -198.486759 -150.429616 0.000000 -0.000005 -18.979500 749.493924 -2.846173 -682.229347 -2.092399 -0.058101 -2.581196 1353.412475 -48.380521 -18.072873 0.000006 -0.000009 -18.665003 -1183.019036 111.157661 -600.513292 0.000001 -0.000010 -18.566607 707.887745 9.227532 -364.233033
67.341797 5.431404 43.704296 2484.060899 3.895127 -6.350493 -0.153490 1.163106 7.852403 -2.388017 7.637152 8.823618 -0.000001 -0.000001 3.343297 -1.524665 -4.264909 -0.003978 -0.000007 -0.000005 7.785506 56.956558 -3.075650 -9.227223 0.000002 0.000005 2.173909 6.586763 -0.416125 7.193504 2.676292 -1.652393 4.938308 -0.140526 0.235323 9.737312 4.299001 0.000000 -0.000006 -366.860990 -5.355238 264.502901 -0.000003 0.000010 -10.245109 35.659021 707.772561 361.102348 0.000008 0.000005 -12.703299 859.629195 -341.246360 426.655252 -2.534603 -1.686397 5.195007 1.625055 2.805787 7.599187 -4.144101 -0.000004 0.000006 198.286607 196.471402 -63.819163 -0.000007 0.000003 -10.116500 -400.255588 -366.927243 -364.874197 -0.000003 0.000002 -12.937802 -1730.827965 -4.191451 40.745466 2.175597 0.064499 -2.662892 -1064.910312 -13.102412 6.173679 0.000000 0.000003 -18.585796 480.426163 -198.545184 -150.357899 0.000005 -0.000003 -18.979496 749.520043 -3.091048 -681.605232 -2.092398 -0.058098 -2.581198 1354.390558 -48.460913 -17.305563 0.000013 -0.000007 -18.665003 -1184.307264 111.000669 -599.815082 0.000002 -0.000005 -18.566603 707.970909 9.329889 -363.817375
67.328804 5.439800 43.707001 2484.057839 3.828949 -6.371326 -0.153491 1.163101 7.852414 -2.293045 7.675431 8.842445 -0.000002 0.000002 3.343305 -1.546758 -4.300353 -0.004287 0.000004 -0.000000 7.785502 57.005807 -3.052992 -9.221063 0.000013 -0.000003 2.173912 6.613180 -0.440640 7.148245 2.676299 -1.652392 4.938299 -0.015752 0.170183 9.717804 4.299009 -0.000003 -0.000003 -366.973333 -5.197297 264.444216 -0.000002 0.000001 -10.245108 35.705367 707.806165 361.129805 0.000002 0.000009 -12.703300 859.437130 -341.277724 426.713282 -2.534598 -1.686398 5.194996 1.671374 2.844040 7.694848 -4.144101 -0.000001 -0.000001 198.311565 196.533325 -63.808454 0.000007 -0.000000 -10.116502 -399.779551 -366.931914 -364.872694 0.000010 0.000000 -12.937800 -1731.042925 -4.140811 40.784439 2.175595 0.064486 -2.662890 -1064.890859 -13.035964 6.156329 0.000002 -0.000005 -18.585796 480.428130 -198.583652 -150.285226 0.000005 -0.000006 -18.979500 749.619982 -3.485722 -680.509888 -2.092398 -0.058106 -2.581190 1355.128437 -48.482698 -16.721623 0.000006 -0.000007 -18.665005 -1185.367637 110.862815 -599.227140 0.000002 -0.000007 -18.566599 708.015715 9.432997 -363.350792
67.316498 5.448902 43.710602 2484.067893 3.774840 -6.385672 -0.153499 1.163103 7.852407 -2.280953 7.697452 8.871816 -0.000011 0.000001 3.343301 -1.542678 -4.336664 -0.004063 0.000000 0.000001 7.785502 56.996682 -3.046931 -9.165201 -0.000007 0.000004 2.173911 6.690986 -0.460594 7.058244 2.676292 -1.652396 4.938300 0.183601 0.058978 9.669563 4.299000 0.000005 -0.000003 -367.081905 -5.003952 264.410884 -0.000007 -0.000008 -10.245106 35.736789 707.811411 361.157017 0.000006 -0.000001 -12.703304 859.222935 -341.312667 426.779726 -2.534599 -1.686399 5.194999 1.711367 2.878437 7.740198 -4.144100 0.000010 -0.000004 198.358461 196.546548 -63.761728 0.000005 0.000000 -10.116498 -399.290099 -366.970163 -364.879579 -0.000000 0.000000 -12.937802 -1731.335803 -4.060037 40.836960 2.175596 0.064499 -2.662895 -1064.909656 -12.974867 6.126688 0.000001 -0.000001 -18.585796 480.444085 -198.590619 -150.245065 -0.000001 -0.000002 -18.979494 749.725277 -3.794880 -679.625351 -2.092396 -0.058097 -2.581202 1355.821838 -48.492612 -16.165294 0.000006 -0.000006 -18.665010 -1186.387139 110.753546 -598.662037 0.000005 -0.000011 -18.566601 708.078936 9.537407 -362.984857
67.305496 5.458904 43.714790 2484.094558 3.726253 -6.408763 -0.153502 1.163103 7.852409 -2.267238 7.707011 8.883686 -0.000007 -0.000003 3.343298 -1.551502 -4.364492 -0.004090 -0.000002 0.000001 7.785506 56.951852 -3.016384 -9.082358 0.000001 0.000000 2.173901 6.788486 -0.489747 6.943523 2.676295 -1.652401 4.938298 0.366892 -0.022176 9.639734 4.299007 0.000000 -0.000000 -367.188429 -4.843069 264.378591 -0.000007 0.000010 -10.245103 35.779471 707.814198 361.185731 0.000015 -0.000003 -12.703293 859.024532 -341.374849 426.872671 -2.534599 -1.686402 5.194994 1.740240 2.926026 7.834312 -4.144098 0.000008 -0.000003 198.361247 196.494256 -63.746599 0.000010 -0.000002 -10.116491 -398.926160 -367.014997 -364.885125 -0.000001 -0.000011 -12.937799 -1731.574149 -3.969060 40.906693 2.175598 0.064492 -2.662899 -1064.962440 -12.910018 6.099480 0.000002 0.000000 -18.585791 480.472280 -198.569527 -150.235789 0.000000 0.000012 -18.979492 749.815872 -3.998044 -679.021726 -2.092396 -0.058104 -2.581192 1356.424862 -48.504739 -15.665467 0.000010 -0.000005 -18.665009 -1187.123378 110.734176 -598.310364 -0.000001 -0.000010 -18.566597 708.095984 9.580134 -362.817955
67.296204 5.469799 43.718796 2484.137615 3.686266 -6.433088 -0.153493 1.163097 7.852400 -2.265093 7.695747 8.875557 0.000005 0.000001 3.343292 -1.567105 -4.385637 -0.003961 -0.000003 0.000000 7.785506 56.892095 -2.973900 -9.001617 0.000005 0.000005 2.173911 6.883595 -0.527681 6.813649 2.676291 -1.652400 4.938300 0.473805 -0.045254 9.657590 4.299000 0.000001 -0.000005 -367.225066 -4.744923 264.298104 -0.000004 0.000008 -10.245110 35.725171 707.820427 361.196523 0.000000 0.000002 -12.703300 858.955192 -341.416759 426.900265 -2.534603 -1.686400 5.195003 1.785684 3.011646 7.952050 -4.144101 0.000005 -0.000004 198.314515 196.405163 -63.737058 -0.000002 0.000003 -10.116505 -398.661504 -367.059639 -364.878022 0.000001 -0.000004 -12.937807 -1731.733047 -3.886484 40.979550 2.175601 0.064494 -2.662898 -1065.037517 -12.847144 6.070725 -0.000011 0.000002 -18.585804 480.507633 -198.525527 -150.256471 0.000005 -0.000008 -18.979502 749.874393 -4.077415 -678.773982 -2.092394 -0.058106 -2.581204 1356.873906 -48.513311 -15.284157 0.000009 -0.000002 -18.665007 -1187.760170 110.689130 -597.962954 -0.000000 -0.000008 -18.566597 708.160898 9.625432 -362.749653
67.287598 5.483608 43.722595 2484.222856 3.643287 -6.469957 -0.153497 1.163111 7.852404 -2.276456 7.698953 8.823784 -0.000003 -0.000003 3.343302 -1.598823 -4.422117 0.038871 0.000003 0.000006 7.785501 56.843874 -2.953322 -8.953476 0.000004 0.000002 2.173910 6.940340 -0.651178 6.729572 2.676300 -1.652393 4.938303 0.506904 -0.007536 9.695640 4.299003 0.000002 -0.000005 -367.224902 -4.709757 264.213956 -0.000004 -0.000008 -10.245108 35.570467 707.838349 361.153684 -0.000004 0.000000 -12.703309 858.929346 -341.432059 426.936711 -2.534590 -1.686395 5.194994 1.833031 3.126132 8.083514 -4.144103 0.000011 -0.000006 198.257948 196.311508 -63.728950 -0.000003 -0.000002 -10.116495 -398.542139 -367.070595 -364.841139 0.000001 -0.000002 -12.937800 -1731.719059 -3.817949 41.076618 2.175593 0.064503 -2.662892 -1065.073362 -12.788842 6.057180 -0.000002 -0.000001 -18.585800 480.489875 -198.482688 -150.274912 0.000004 -0.000003 -18.979494 749.869312 -4.049518 -678.841519 -2.092402 -0.058100 -2.581197 1357.194651 -48.527524 -14.970021 0.000000 -0.000003 -18.665001 -1188.226153 110.681125 -597.707450 0.000000 -0.000007 -18.566597 708.220348 9.637124 -362.843828
67.278091 5.501801 43.727097 2484.334981 3.598666 -6.506278 -0.153505 1.163100 7.852399 -2.301307 7.673356 8.837890 0.000001 -0.000000 3.343299 -1.608949 -4.432272 0.018455 -0.000003 0.000003 7.785500 56.828052 -2.954743 -8.973224 -0.000006 0.000005 2.173910 6.900427 -0.591885 6.747031 2.676295 -1.652398 4.938297 0.407024 0.117286 9.744614 4.298991 0.000003 -0.000005 -367.146164 -4.769568 264.104291 -0.000003 0.000002 -10.245102 35.292926 707.858566 361.086311 -0.000008 -0.000006 -12.703299 858.993386 -341.442113 426.862071 -2.534604 -1.686398 5.194998 1.923565 3.287970 8.177634 -4.144110 0.000007 -0.000006 198.080759 196.176639 -63.687696 0.000006 -0.000003 -10.116498 -398.595415 -367.082506 -364.810266 -0.000007 -0.000006 -12.937799 -1731.586061 -3.778877 41.156408 2.175584 0.064490 -2.662900 -1065.066040 -12.742541 6.048263 -0.000000 0.000000 -18.585800 480.433539 -198.449589 -150.291155 0.000005 -0.000013 -18.979502 749.786366 -3.875406 -679.361269 -2.092405 -0.058104 -2.581200 1357.589819 -48.540351 -14.588178 0.000007 -0.000013 -18.664999 -1188.639790 110.747638 -597.511888 -0.000000 -0.000002 -18.566603 708.287011 9.588170 -363.224952
67.266701 5.525394 43.732697 2484.457378 3.558192 -6.506848 -0.153503 1.163111 7.852395 -2.291777 7.650088 8.812667 -0.000001 -0.000002 3.343299 -1.631237 -4.446115 -0.003311 -0.000002 -0.000009 7.785501 56.873756 -2.992566 -9.060208 0.000002 -0.000001 2.173912 6.863936 -0.821045 6.758222 2.676287 -1.652403 4.938302 0.235983 0.293479 9.825182 4.299003 0.000008 -0.000005 -367.050732 -4.876624 263.943645 -0.000001 0.000006 -10.245103 34.927914 707.900586 361.006507 -0.000010 0.000003 -12.703304 859.156600 -341.424409 426.733335 -2.534605 -1.686402 5.194995 2.001081 3.444159 8.244063 -4.144101 0.000004 0.000007 197.873476 195.966132 -63.628062 0.000006 -0.000003 -10.116503 -398.619457 -367.099227 -364.753221 -0.000003 0.000004 -12.937809 -1731.495356 -3.763197 41.234685 2.175595 0.064491 -2.662904 -1065.054675 -12.716678 6.003160 -0.000009 0.000000 -18.585796 480.360538 -198.412296 -150.301441 0.000003 0.000001 -18.979502 749.695169 -3.685718 -679.918230 -2.092398 -0.058100 -2.581204 1357.982036 -48.509813 -14.217814 0.000004 -0.000010 -18.665018 -1188.980206 110.861395 -597.358673 -0.000001 -0.000011 -18.566595 708.353455 9.496989 -363.801803
